<svg width="155" height="155" viewBox="0 0 155 155" fill="none" xmlns="http://www.w3.org/2000/svg">
<rect width="155" height="155" rx="50" fill="#1C1C1C"/>
<path d="M93.8861 28.1369V30.1749V42.8395L72.8755 63.8502C71.7436 63.205 70.4382 62.7826 69.0422 62.7826C64.7557 62.7826 61.2784 66.3085 61.2784 70.5949C61.2784 71.991 61.7008 73.2479 62.3459 74.3797L41.3353 95.3904H28.6707H26.6327V97.4284V110.966V113.004H28.6707H42.2087H44.2467V110.966V98.3018L63.6075 78.9409C56.0914 93.4622 56.661 111.513 66.616 125.863L69.8671 123.534C60.191 109.586 60.2622 91.853 68.5569 78.2616C68.7232 78.2709 68.8732 78.3587 69.0422 78.3587C73.3286 78.3587 76.8544 74.8814 76.8544 70.5949C76.8544 69.9841 76.6964 69.3212 76.5633 68.751C77.754 67.7055 79.0142 66.7165 80.3481 65.7911C93.7385 56.5017 111.333 55.8891 125.329 64.2383L127.367 60.7447C119.696 56.1682 111.099 54.0452 102.523 54.3396C95.7716 54.5714 89.0887 56.3617 82.9684 59.5801L96.7975 45.7509H109.462H111.5V43.7129V30.1749V28.1369H109.462H95.9241L93.8861 28.1369ZM97.9621 32.2129H107.424V41.675H97.9621V32.2129ZM30.7087 99.4663H40.1707V108.928H30.7087V99.4663Z" fill="white"/>
</svg>
